<?xml version="1.0" standalone="no"?>
<!DOCTYPE svg PUBLIC "-//W3C//DTD SVG 20010904//EN"
 "http://www.w3.org/TR/2001/REC-SVG-20010904/DTD/svg10.dtd">
<svg version="1.0" xmlns="http://www.w3.org/2000/svg"
 width="93.000000pt" height="93.000000pt" viewBox="0 0 93.000000 93.000000"
 preserveAspectRatio="xMidYMid meet">
<metadata>
Created by potrace 1.11, written by Peter Selinger 2001-2013
</metadata>
<g transform="translate(0.000000,93.000000) scale(0.100000,-0.100000)"
fill="#000000" stroke="none">
<path d="M243 899 c-124 -48 -170 -147 -137 -289 14 -61 64 -183 76 -188 4 -2
8 -9 8 -15 0 -6 8 -19 17 -29 14 -16 18 -41 19 -126 2 -111 5 -134 19 -167 13
-31 47 -65 65 -65 9 0 20 -3 24 -7 9 -10 49 -11 56 -3 3 4 23 13 44 22 36 14
42 14 70 -1 17 -9 33 -18 36 -21 10 -10 70 -8 70 2 0 6 3 8 6 5 4 -4 19 3 35
13 44 32 63 98 64 220 0 96 2 109 27 150 24 41 79 157 77 163 -1 1 4 20 10 42
25 92 7 184 -45 240 -51 54 -190 89 -258 65 -47 -17 -76 -21 -76 -11 0 5 -8
10 -17 10 -10 1 -45 3 -78 6 -46 4 -72 0 -112 -16z m147 -31 c0 -5 4 -7 9 -3
22 13 20 -17 -3 -38 -58 -54 -140 -253 -149 -362 -5 -58 -34 -24 -76 90 -29
76 -32 176 -8 226 18 37 82 81 127 87 13 2 26 5 27 6 7 7 73 2 73 -6z m260 0
c0 -4 3 -7 8 -5 4 1 26 -6 48 -16 102 -46 114 -182 32 -360 -32 -69 -45 -73
-52 -14 -9 78 -20 128 -27 133 -5 3 -9 13 -9 23 0 15 -16 49 -76 161 -7 14
-22 32 -34 40 -43 31 -17 47 73 46 20 0 37 -4 37 -8z m-131 -90 c21 -29 45
-66 54 -83 21 -42 55 -148 62 -193 3 -21 7 -48 10 -61 13 -70 8 -97 -25 -147
-31 -45 -141 -184 -146 -184 -3 0 -50 48 -80 82 -11 13 -41 52 -66 88 -39 54
-46 72 -44 107 0 24 3 43 6 43 3 0 6 15 7 33 1 33 3 41 23 117 25 97 115 249
147 250 7 0 30 -24 52 -52z m-203 -560 c21 -29 55 -72 76 -96 22 -23 36 -47
33 -52 -4 -6 -10 -8 -15 -5 -4 3 -13 -2 -20 -10 -8 -10 -18 -11 -36 -5 -13 5
-24 7 -24 3 0 -3 -11 6 -25 21 -22 23 -41 97 -38 144 0 6 1 21 2 32 0 11 3 20
5 20 2 0 21 -24 42 -52z m350 -31 c-4 -49 -12 -80 -28 -104 -21 -32 -26 -34
-66 -29 -75 9 -77 15 -22 76 23 25 55 66 73 92 18 25 36 44 40 41 5 -3 6 -37
3 -76z"/>
</g>
</svg>
