<svg xmlns="http://www.w3.org/2000/svg" viewBox="0 0 480 400.03"><defs><style>.cls-1{fill:#de1f3a;}</style></defs><title>Asset 2</title><g id="Layer_2" data-name="Layer 2"><g id="Layer_1-2" data-name="Layer 1"><path class="cls-1" d="M472,48H440V8a8,8,0,0,0-8-8c-.23,0-.47,0-.7,0L410.46,1.79A485.15,485.15,0,0,0,263.34,37.66L240,47.36l-23.31-9.67A485.65,485.65,0,0,0,69.55,1.81L48.67,0A8,8,0,0,0,40,7.33c0,.23,0,.46,0,.7V48H8a8,8,0,0,0-8,8V392a8,8,0,0,0,8,8H472a8,8,0,0,0,8-8V56a8,8,0,0,0-8-8M269.49,52.44a469.44,469.44,0,0,1,142.3-34.68l12.21-1V336.66l-13.14,1.07a488.4,488.4,0,0,0-147.2,35.79L248,380V61.36ZM56,16.73l12.21,1A469.42,469.42,0,0,1,210.54,52.45L232,61.36V380l-14.75-6.16a485.13,485.13,0,0,0-147-36L56,336.68ZM16,64H40V344a8,8,0,0,0,7.32,8l21.53,1.84q8.79.74,17.6,1.81c2,.24,3.9.55,5.86.8,3.88.52,7.76,1,11.63,1.66,2.3.37,4.6.8,6.89,1.21,3.51.61,7,1.23,10.5,1.92,2.4.48,4.8,1,7.2,1.53,3.37.72,6.73,1.45,10.09,2.25,2.4.58,4.84,1.19,7.25,1.81,3.31.85,6.6,1.71,9.89,2.62,2.4.68,4.8,1.38,7.2,2.08q4.89,1.45,9.77,3,3.57,1.14,7.12,2.34c3.27,1.09,6.52,2.25,9.77,3.42,2.3.8,4.61,1.67,6.9,2.55,1,.37,2,.8,3,1.16H16ZM464,384H280.64c1.1-.43,2.18-.87,3.28-1.29,2.4-.92,4.8-1.79,7.26-2.66q4.69-1.71,9.44-3.31l7.42-2.4c3.16-1,6.34-2,9.51-2.91q3.75-1.11,7.51-2.15c3.2-.9,6.4-1.74,9.68-2.56,2.48-.63,5-1.27,7.46-1.86,3.33-.8,6.68-1.52,10-2.23,2.4-.52,4.8-1.06,7.25-1.54,3.52-.69,7.06-1.31,10.58-1.92l6.87-1.2c3.94-.63,7.89-1.16,11.85-1.69,1.9-.25,3.8-.55,5.7-.8q8.81-1.06,17.69-1.82L432.66,352a8,8,0,0,0,7.34-8V64h24Z"/></g></g></svg>