<svg xmlns="http://www.w3.org/2000/svg" xmlns:xlink="http://www.w3.org/1999/xlink" viewBox="0 0 68.59 68.55"><defs><style>.cls-1{fill:none;}.cls-2{clip-path:url(#clip-path);}.cls-3{fill:#de1f3a;}</style><clipPath id="clip-path"><rect class="cls-1" x="0.06" width="68.94" height="69"/></clipPath></defs><title>Asset 1</title><g id="Layer_2" data-name="Layer 2"><g id="Layer_1-2" data-name="Layer 1"><g class="cls-2"><path class="cls-3" d="M60.38,49.39a30.2,30.2,0,0,1-11,11,29.55,29.55,0,0,1-15.11,4.05A28.91,28.91,0,0,1,22.54,62a30.53,30.53,0,0,1-9.6-6.41A30.27,30.27,0,0,1,6.53,46,29.35,29.35,0,0,1,4.16,34.24a29.49,29.49,0,0,1,4-15.08,30,30,0,0,1,11-11A29.33,29.33,0,0,1,34.24,4.12,29.56,29.56,0,0,1,49.35,8.18a30.24,30.24,0,0,1,11,11,29.41,29.41,0,0,1,4,15.08A29.67,29.67,0,0,1,60.38,49.39Zm5.47-28.46A33.6,33.6,0,0,0,47.59,2.74,33.75,33.75,0,0,0,34.24,0,33.35,33.35,0,0,0,20.93,2.74,33.71,33.71,0,0,0,2.7,20.93a34.26,34.26,0,0,0,0,26.66A33.76,33.76,0,0,0,20.93,65.81a33.79,33.79,0,0,0,26.66,0A33.66,33.66,0,0,0,65.85,47.59a33.79,33.79,0,0,0,0-26.66Z"/></g><path class="cls-3" d="M34.83,35.74V16.31a2.16,2.16,0,0,0-2.17-2.1,2.11,2.11,0,0,0-2.06,2.1V36a1.52,1.52,0,0,1,.07.29,2,2,0,0,0,.57,1.7L42.45,49.24a2.12,2.12,0,0,0,2.88,0,2,2,0,0,0,0-2.93Z"/></g></g></svg>