<svg xmlns="http://www.w3.org/2000/svg" viewBox="0 0 511.72 512"><defs><style>.cls-1{fill:#fff;}</style></defs><title>Asset 1</title><g id="Layer_2" data-name="Layer 2"><g id="Layer_1-2" data-name="Layer 1"><path class="cls-1" d="M511.72,256A255.83,255.83,0,0,0,259.33.18C258.16.07,257,0,255.86,0s-2.3.07-3.46.18A255.85,255.85,0,0,0,74.94,436.92a254.14,254.14,0,0,0,177.46,74.9c1.17.11,2.32.18,3.46.18s2.3-.08,3.47-.18A255.83,255.83,0,0,0,511.72,256M30.93,271.21h89.63a381.72,381.72,0,0,0,14.16,90H56.35A223.83,223.83,0,0,1,30.93,271.21Zm449.86-30.42H391.16a381.63,381.63,0,0,0-14.16-90h78.37A223.67,223.67,0,0,1,480.79,240.79Zm-120.07,0H271.07v-90h74.19A347.71,347.71,0,0,1,360.72,240.79Zm-89.65-120.4V36.68c12.67,8.29,29.68,24.94,45.6,50.76a265.77,265.77,0,0,1,17.2,33ZM240.65,36.68v83.71h-62.8a265.77,265.77,0,0,1,17.2-32.95C211,61.62,228,45,240.65,36.68Zm0,114.13v90H151a347.71,347.71,0,0,1,15.46-90Zm-120.09,90H30.93a223.79,223.79,0,0,1,25.42-90h78.37A381.63,381.63,0,0,0,120.56,240.79ZM151,271.21h89.65v90H166.46A347.86,347.86,0,0,1,151,271.21ZM240.65,391.6v83.72C228,467,211,450.38,195.05,424.56a266.62,266.62,0,0,1-17.2-33Zm30.42,83.72V391.6h62.8a266.62,266.62,0,0,1-17.2,33C300.75,450.38,283.74,467,271.07,475.32Zm0-114.13v-90h89.65a347.86,347.86,0,0,1-15.46,90Zm120.09-90h89.63a223.83,223.83,0,0,1-25.42,90H377A381.72,381.72,0,0,0,391.16,271.21ZM436,120.39H366.76a303.66,303.66,0,0,0-24.19-48.91,244.27,244.27,0,0,0-23.29-31.91,224.24,224.24,0,0,1,96,57A226.66,226.66,0,0,1,436,120.39ZM192.44,39.57a244.24,244.24,0,0,0-23.28,31.91A302.87,302.87,0,0,0,145,120.39H75.73a227.83,227.83,0,0,1,20.72-23.8A224.24,224.24,0,0,1,192.44,39.57ZM75.73,391.6H145a302.57,302.57,0,0,0,24.2,48.92,244.24,244.24,0,0,0,23.28,31.91,224.3,224.3,0,0,1-96-57A226.92,226.92,0,0,1,75.73,391.6Zm243.55,80.83a244.27,244.27,0,0,0,23.29-31.91,303.36,303.36,0,0,0,24.19-48.92H436a226.57,226.57,0,0,1-116.71,80.83Z"/></g></g></svg>