<svg xmlns="http://www.w3.org/2000/svg" viewBox="0 0 511.72 512"><defs><style>.cls-1{fill:#365db4;}</style></defs><title>Asset 1</title><g id="Layer_2" data-name="Layer 2"><g id="Layer_1-2" data-name="Layer 1"><g id="Layer_2-2" data-name="Layer 2"><g id="Layer_1-2-2" data-name="Layer 1-2"><path class="cls-1" d="M511.72,256C511.72,116.05,399.27,2.06,259.33.18,258.16.07,257,0,255.86,0s-2.3.07-3.46.18C111.11,2.09-1.88,118.17,0,259.46A255.84,255.84,0,0,0,252.4,511.82c1.17.11,2.32.18,3.46.18s2.3-.08,3.47-.18C399.27,509.94,511.72,396,511.72,256M30.93,271.21h89.63a381.52,381.52,0,0,0,14.16,90H56.35A223.74,223.74,0,0,1,30.93,271.21Zm449.86-30.42H391.16a382,382,0,0,0-14.16-90h78.37a223.7,223.7,0,0,1,25.42,90Zm-120.07,0H271.07v-90h74.19a348.26,348.26,0,0,1,15.46,90Zm-89.65-120.4V36.68c12.67,8.29,29.68,24.94,45.6,50.76a267,267,0,0,1,17.2,33ZM240.65,36.68v83.71h-62.8a264.34,264.34,0,0,1,17.2-32.95C211,61.62,228,45,240.65,36.68Zm0,114.13v90H151a347.41,347.41,0,0,1,15.46-90Zm-120.09,90H30.93a223.7,223.7,0,0,1,25.42-90h78.37a381.35,381.35,0,0,0-14.16,90ZM151,271.21h89.65v90H166.46A347.41,347.41,0,0,1,151,271.21ZM240.65,391.6v83.72C228,467,211,450.38,195.05,424.56a265,265,0,0,1-17.2-33Zm30.42,83.72V391.6h62.8a267.69,267.69,0,0,1-17.2,33C300.75,450.38,283.74,467,271.07,475.32Zm0-114.13v-90h89.65a348.26,348.26,0,0,1-15.46,90Zm120.09-90h89.63a223.9,223.9,0,0,1-25.42,90H377a381.87,381.87,0,0,0,14.16-90ZM436,120.39H366.76a303.78,303.78,0,0,0-24.19-48.91,244.39,244.39,0,0,0-23.29-31.91,224.28,224.28,0,0,1,96,57A227.83,227.83,0,0,1,436,120.39ZM192.44,39.57a243.4,243.4,0,0,0-23.28,31.91A302,302,0,0,0,145,120.39H75.73a227.62,227.62,0,0,1,20.72-23.8A224.11,224.11,0,0,1,192.44,39.57ZM75.73,391.6H145a301.46,301.46,0,0,0,24.2,48.92,243.4,243.4,0,0,0,23.28,31.91A226.69,226.69,0,0,1,75.73,391.6Zm243.55,80.83a244.39,244.39,0,0,0,23.29-31.91,304.29,304.29,0,0,0,24.19-48.92H436a226.54,226.54,0,0,1-116.71,80.83Z"/></g></g></g></g></svg>