<svg xmlns="http://www.w3.org/2000/svg" xmlns:xlink="http://www.w3.org/1999/xlink" viewBox="0 0 378.49 379.04"><defs><style>.cls-1{fill:none;}.cls-2{clip-path:url(#clip-path);}.cls-3{fill:#de1f3a;}</style><clipPath id="clip-path" transform="translate(0 -0.95)"><rect class="cls-1" width="378.96" height="381"/></clipPath></defs><title>Asset 1</title><g id="Layer_2" data-name="Layer 2"><g id="Layer_1-2" data-name="Layer 1"><g class="cls-2"><path class="cls-3" d="M327.93,320c-.08,0-.08.08,0,0-3.12,3.36-6.32,6.4-9.76,9.76a210.36,210.36,0,0,0-15.44,16c-8.08,8.64-17.6,12.72-30.08,12.72-1.2,0-2.48,0-3.68-.08-23.76-1.52-45.84-10.8-62.4-18.72A355.37,355.37,0,0,1,88.49,247.2C61.21,214.32,43,183.92,30.89,151.28c-7.44-19.92-10.16-35.44-9-50.08A36.72,36.72,0,0,1,33,77.44L60.25,50.16c3.92-3.68,8.08-5.68,12.16-5.68,5,0,9.12,3,11.68,5.6l.24.24c4.88,4.56,9.52,9.28,14.4,14.32,2.48,2.56,5,5.12,7.6,7.76l21.84,21.84c8.48,8.48,8.48,16.32,0,24.8-2.32,2.32-4.56,4.64-6.88,6.88-6.72,6.88-13.12,13.28-20.08,19.52-.16.16-.32.24-.4.4-6.88,6.88-5.6,13.6-4.16,18.16l.24.72c5.68,13.76,13.68,26.72,25.84,42.16l.08.08c22.08,27.2,45.36,48.4,71,64.64a109.23,109.23,0,0,0,9.84,5.36c2.88,1.44,5.6,2.8,7.92,4.24.32.16.64.4,1,.56a17.34,17.34,0,0,0,7.92,2c6.64,0,10.8-4.16,12.16-5.52L260,250.88c2.72-2.72,7-6,12.08-6s9,3.12,11.52,5.84L327.85,295C336.09,303.12,336.09,311.52,327.93,320Zm-28.64-84.24c-7.76-8.08-17.12-12.4-27-12.4S253,227.6,244.89,235.68l-25.28,25.2c-2.08-1.12-4.16-2.16-6.16-3.2-2.88-1.44-5.6-2.8-7.92-4.24-23.68-15-45.2-34.64-65.84-60-10-12.64-16.72-23.28-21.6-34.08,6.56-6,12.64-12.24,18.56-18.24,2.24-2.24,4.48-4.56,6.72-6.8,16.8-16.8,16.8-38.56,0-55.36L121.53,57.12c-2.48-2.48-5-5-7.44-7.6-4.8-5-9.84-10.08-15-14.88C91.29,27,82,22.88,72.25,22.88S53.05,27,45.05,34.64l-.16.16L17.69,62.24A58.53,58.53,0,0,0,.33,99.44c-1.92,23.36,5,45.12,10.24,59.36,13,35,32.32,67.36,61.2,102.08,35,41.84,77.2,74.88,125.36,98.16,18.4,8.72,43,19,70.4,20.8,1.68.08,3.44.16,5,.16,18.48,0,34-6.64,46.16-19.84.08-.16.24-.24.32-.4a181.86,181.86,0,0,1,14-14.48c3.44-3.28,7-6.72,10.4-10.32,7.92-8.24,12.08-17.84,12.08-27.68s-4.24-19.44-12.32-27.44Z" transform="translate(0 -0.95)"/><path class="cls-3" d="M204.57,91.12A103,103,0,0,1,288.41,175a10.73,10.73,0,0,0,10.64,9,14.28,14.28,0,0,0,1.84-.16,10.81,10.81,0,0,0,8.88-12.48A124.49,124.49,0,0,0,208.33,69.84a10.86,10.86,0,0,0-12.48,8.8A10.68,10.68,0,0,0,204.57,91.12Z" transform="translate(0 -0.95)"/><path class="cls-3" d="M378.33,168.16a205,205,0,0,0-167-167,10.78,10.78,0,1,0-3.52,21.28A183.1,183.1,0,0,1,357.05,171.68a10.73,10.73,0,0,0,10.64,9,14.28,14.28,0,0,0,1.84-.16A10.6,10.6,0,0,0,378.33,168.16Z" transform="translate(0 -0.95)"/></g></g></g></svg>