<?xml version="1.0" encoding="utf-8"?>
<!-- Generator: Adobe Illustrator 22.0.0, SVG Export Plug-In . SVG Version: 6.00 Build 0)  -->
<svg version="1.1" id="Layer_1" xmlns="http://www.w3.org/2000/svg" xmlns:xlink="http://www.w3.org/1999/xlink" x="0px" y="0px"
	 viewBox="0 0 512 512" style="enable-background:new 0 0 512 512;" xml:space="preserve">
<style type="text/css">
	.st0{fill:#FFFFFF;}
	.st1{clip-path:url(#SVGID_2_);}
	.st2{fill:#DC1E39;}
</style>
<title>Asset 1</title>
<g>
	<circle class="st0" cx="256" cy="256" r="240.5"/>
	<g id="Layer_2_1_">
		<g id="Layer_1-2">
			<g>
				<g>
					<g>
						<defs>
							<rect id="SVGID_1_" x="0.1" width="511.9" height="512"/>
						</defs>
						<clipPath id="SVGID_2_">
							<use xlink:href="#SVGID_1_"  style="overflow:visible;"/>
						</clipPath>
						<g class="st1">
							<path class="st2" d="M437,75c-101.4-98.5-263.5-96.1-362,5.3c-96.5,99.3-96.5,257.4,0,356.7c101.4,98.5,263.5,96.1,362-5.3
								C533.5,332.4,533.5,174.3,437,75 M255.9,482C131.3,482,30,380.6,30,256s101.4-226,226-226s226,101.4,226,226
								S380.6,482,255.9,482z"/>
						</g>
					</g>
				</g>
			</g>
			<path class="st2" d="M400.9,243.5L208.1,115c-6.9-4.6-16.2-2.7-20.8,4.2c-1.6,2.5-2.5,5.4-2.5,8.3v257c0,8.3,6.7,15,15,15
				c3,0,5.8-0.9,8.3-2.5l192.8-128.5c6.9-4.6,8.8-13.9,4.2-20.8C404,246,402.6,244.6,400.9,243.5 M214.8,356.5v-201L365.5,256
				L214.8,356.5z"/>
		</g>
	</g>
</g>
</svg>
