<svg xmlns="http://www.w3.org/2000/svg" xmlns:xlink="http://www.w3.org/1999/xlink" viewBox="0 0 435.28 117.32"><defs><style>.cls-1{fill:url(#linear-gradient);}.cls-2{fill:url(#linear-gradient-2);}.cls-3{isolation:isolate;}.cls-4{fill:url(#New_Gradient_Swatch_1);}.cls-5{clip-path:url(#clip-path);}.cls-6{fill:url(#linear-gradient-4);}.cls-7{fill:url(#linear-gradient-5);}.cls-8{fill:url(#linear-gradient-6);}.cls-9{fill:url(#linear-gradient-7);}.cls-10{mix-blend-mode:multiply;}.cls-11{clip-path:url(#clip-path-2);}.cls-12{fill:url(#linear-gradient-9);}.cls-13{fill:url(#linear-gradient-10);}.cls-14{fill:url(#linear-gradient-11);}.cls-15{fill:url(#linear-gradient-12);}.cls-16{fill:#59c9ef;}.cls-17{fill:#174a94;}</style><linearGradient id="linear-gradient" x1="34.49" y1="80.56" x2="107.85" y2="80.56" gradientUnits="userSpaceOnUse"><stop offset="0.33" stop-color="#5ac8ee"/><stop offset="1" stop-color="#4979bc"/></linearGradient><linearGradient id="linear-gradient-2" y1="45.91" x2="73.36" y2="45.91" gradientUnits="userSpaceOnUse"><stop offset="0" stop-color="#4979bc"/><stop offset="1" stop-color="#5ac8ee"/></linearGradient><linearGradient id="New_Gradient_Swatch_1" x1="70.22" y1="-5.02" x2="143.42" y2="71.23" gradientUnits="userSpaceOnUse"><stop offset="0" stop-color="#e92128"/><stop offset="1" stop-color="#911b1e"/></linearGradient><clipPath id="clip-path"><path id="_Clipping_Path_" data-name="&lt;Clipping Path&gt;" class="cls-1" d="M88.41,43.8H61.57A27.11,27.11,0,0,0,34.49,70.88v27a19.44,19.44,0,1,0,38.87,0V82.67h15a19.44,19.44,0,1,0,0-38.87Z"/></clipPath><linearGradient id="linear-gradient-4" x1="98.85" y1="35.38" x2="32.25" y2="106.54" gradientUnits="userSpaceOnUse"><stop offset="0.54" stop-color="#5ac8ee"/><stop offset="1" stop-color="#174b93"/></linearGradient><linearGradient id="linear-gradient-5" x1="34.49" y1="112.97" x2="43.77" y2="112.97" xlink:href="#linear-gradient"/><linearGradient id="linear-gradient-6" x1="34.49" y1="114.45" x2="40.61" y2="114.45" xlink:href="#linear-gradient"/><linearGradient id="linear-gradient-7" x1="34.49" y1="115.93" x2="37.45" y2="115.93" xlink:href="#linear-gradient"/><clipPath id="clip-path-2"><path id="_Clipping_Path_2" data-name="&lt;Clipping Path&gt;" class="cls-2" d="M53.92,9.15A19.43,19.43,0,0,0,34.49,28.58V43.8H19.43a19.44,19.44,0,0,0,0,38.87H46.28A27.11,27.11,0,0,0,73.36,55.59v-27A19.43,19.43,0,0,0,53.92,9.15Z"/></clipPath><linearGradient id="linear-gradient-9" x1="79.93" y1="15.29" x2="13.33" y2="86.46" gradientUnits="userSpaceOnUse"><stop offset="0.33" stop-color="#5ac8ee"/><stop offset="1" stop-color="#174b93"/></linearGradient><linearGradient id="linear-gradient-10" y1="78.33" x2="9.28" y2="78.33" xlink:href="#linear-gradient-2"/><linearGradient id="linear-gradient-11" y1="79.8" x2="6.12" y2="79.8" xlink:href="#linear-gradient-2"/><linearGradient id="linear-gradient-12" y1="81.28" x2="2.96" y2="81.28" xlink:href="#linear-gradient-2"/></defs><title>logo_1</title><g class="cls-3"><g id="Layer_2" data-name="Layer 2"><g id="Layer_1-2" data-name="Layer 1"><g id="_Group_" data-name="&lt;Group&gt;"><g id="_Group_2" data-name="&lt;Group&gt;"><path id="_Compound_Path_" data-name="&lt;Compound Path&gt;" class="cls-4" d="M98.85,0A18.28,18.28,0,0,0,82.6,9.9,18.89,18.89,0,0,0,81.34,13a32.91,32.91,0,0,0-1.82,10.83V37.57H93.44a33,33,0,0,0,11.5-2.07l.61-.23.58-.23A18.28,18.28,0,0,0,98.85,0Zm-.53,28.16a9.38,9.38,0,1,1,9.37-9.38A9.38,9.38,0,0,1,98.32,28.16Z"/></g><g id="_Group_3" data-name="&lt;Group&gt;"><g id="_Clip_Group_" data-name="&lt;Clip Group&gt;"><path id="_Clipping_Path_3" data-name="&lt;Clipping Path&gt;" class="cls-1" d="M88.41,43.8H61.57A27.11,27.11,0,0,0,34.49,70.88v27a19.44,19.44,0,1,0,38.87,0V82.67h15a19.44,19.44,0,1,0,0-38.87Z"/><g class="cls-5"><polygon id="_Path_" data-name="&lt;Path&gt;" class="cls-6" points="107.85 76.89 70.01 117.32 43.77 117.32 34.49 108.63 34.49 53.02 43.12 43.8 107.85 43.8 107.85 76.89"/><polygon id="_Path_2" data-name="&lt;Path&gt;" class="cls-7" points="40.61 117.32 34.49 111.59 34.49 108.63 43.77 117.32 40.61 117.32"/><polygon id="_Path_3" data-name="&lt;Path&gt;" class="cls-8" points="37.45 117.32 34.49 114.54 34.49 111.59 40.61 117.32 37.45 117.32"/><polygon id="_Path_4" data-name="&lt;Path&gt;" class="cls-9" points="34.49 114.54 37.45 117.32 34.49 117.32 34.49 114.54"/></g></g></g><g id="_Group_4" data-name="&lt;Group&gt;" class="cls-10"><g id="_Clip_Group_2" data-name="&lt;Clip Group&gt;"><path id="_Clipping_Path_4" data-name="&lt;Clipping Path&gt;" class="cls-2" d="M53.92,9.15A19.43,19.43,0,0,0,34.49,28.58V43.8H19.43a19.44,19.44,0,0,0,0,38.87H46.28A27.11,27.11,0,0,0,73.36,55.59v-27A19.43,19.43,0,0,0,53.92,9.15Z"/><g class="cls-11"><polygon id="_Path_5" data-name="&lt;Path&gt;" class="cls-12" points="73.36 73.44 64.73 82.67 9.28 82.67 0 73.98 0 49.57 37.84 9.15 73.36 9.15 73.36 73.44"/><polygon id="_Path_6" data-name="&lt;Path&gt;" class="cls-13" points="6.12 82.67 0 76.94 0 73.98 9.28 82.67 6.12 82.67"/><polygon id="_Path_7" data-name="&lt;Path&gt;" class="cls-14" points="2.96 82.67 0 79.89 0 76.94 6.12 82.67 2.96 82.67"/><polygon id="_Path_8" data-name="&lt;Path&gt;" class="cls-15" points="0 79.89 2.96 82.67 0 82.67 0 79.89"/></g></g></g><path class="cls-16" d="M129.84,82.8a1.23,1.23,0,0,1-1.4-1.2l-5.7-36.28A1.13,1.13,0,0,1,124,44h8.59a1.22,1.22,0,0,1,1.34,1.2l1.77,16c.3,2.54.67,6.49.89,9.86h.15c1.33-3.29,2.66-6.72,4-9.93l7-16.21a1.66,1.66,0,0,1,1.56-1h9.18c1,0,1.33.6.88,1.5L141.1,81.83a1.52,1.52,0,0,1-1.48,1Z"/><path class="cls-16" d="M156.2,82.8a1.09,1.09,0,0,1-1.11-1.42l6.37-36.29A1.2,1.2,0,0,1,162.79,44h8.59a1.06,1.06,0,0,1,1.18,1.35L166.2,81.6a1.33,1.33,0,0,1-1.41,1.2Zm12.29-44.28c-3.77,0-6.14-3.06-5.4-6.94a6.36,6.36,0,0,1,6.51-5.45c3.78,0,6.15,3,5.41,7A6.56,6.56,0,0,1,168.49,38.52Z"/><path class="cls-16" d="M185.45,83.77c-10.37,0-15.62-6-14.14-14.11,1.26-7.25,7.33-10.46,16.8-10.46a33.12,33.12,0,0,1,6.3.6l.14-1.19c.67-3.66-.37-5.68-5-5.68a22,22,0,0,0-8.81,1.72c-.81.37-1.41.22-1.7-.6l-2.3-6.12c-.22-.67-.22-1.19.22-1.49,3.56-2.17,9.11-3.51,15.11-3.51,10.07,0,15.25,6.72,13.25,17.92L202,79.74a1.71,1.71,0,0,1-1.11,1.41A47.27,47.27,0,0,1,185.45,83.77Zm1.41-9.34a25.8,25.8,0,0,0,5.1-.59l1-6.5a23.56,23.56,0,0,0-4.74-.52c-3.63,0-5.55,1.19-5.92,3.43C181.82,73.09,183.6,74.43,186.86,74.43Z"/><path class="cls-17" d="M248.09,42.93c10.21,0,15.39,7.61,13.62,18.22L258,81.6a1.27,1.27,0,0,1-1.34,1.2h-8.36c-.89,0-1.26-.6-1.19-1.42l3.78-21.8c.81-4.78-.89-6.87-4.44-6.87a10.72,10.72,0,0,0-5,1.34,20.73,20.73,0,0,1-.08,7.1L237.79,81.6a1.25,1.25,0,0,1-1.33,1.2H228.1a1.11,1.11,0,0,1-1.19-1.42l3.78-21.8c.81-4.78-.74-6.87-4.08-6.87a10.26,10.26,0,0,0-4.29.89l-5,28A1.26,1.26,0,0,1,216,82.8h-8.51c-.81,0-1.26-.53-1.11-1.42l6.14-34.12a1.85,1.85,0,0,1,1.11-1.35,38.82,38.82,0,0,1,14.37-3,14.47,14.47,0,0,1,9.18,3A23.52,23.52,0,0,1,248.09,42.93Z"/><path class="cls-17" d="M284.66,42.93c9.48,0,16.22,5.07,14.22,16l-1.26,7.24a1.24,1.24,0,0,1-1.33,1.12H275.7l-.22,1c-.74,4,1,5.9,5.11,5.9a19.21,19.21,0,0,0,9.63-3c.74-.52,1.33-.45,1.7.37l3,5.75c.3.75.23,1.42-.44,1.79A26.4,26.4,0,0,1,279,83.77c-9.7,0-16.44-6-14.74-15.68l1.93-10.83C268,47.48,275.7,42.93,284.66,42.93ZM288.22,58c.51-3-.74-5.6-4.52-5.6a6.17,6.17,0,0,0-6.29,5.45l-.37,2h10.81Z"/><path class="cls-17" d="M315.17,83.77c-10.74,0-16.66-7.39-15-17.32l1.56-8.59c1.55-8.88,8.29-14.93,17.1-14.93a16,16,0,0,1,7.18,1.57l2.44-13.89a1.31,1.31,0,0,1,1.34-1.2h8.59a1.11,1.11,0,0,1,1.18,1.42l-8.51,48.83A1.51,1.51,0,0,1,330,81,42,42,0,0,1,315.17,83.77Zm1-9.93a13.43,13.43,0,0,0,4.89-.82l3.33-19.27a9,9,0,0,0-4.88-1.27c-3.56,0-5.85,2.24-6.67,6.8l-1.4,8C310.58,72,312.21,73.84,316.2,73.84Z"/><path class="cls-17" d="M337.31,82.8a1.09,1.09,0,0,1-1.11-1.42l6.36-36.29A1.21,1.21,0,0,1,343.9,44h8.58c.89,0,1.34.53,1.19,1.35L347.3,81.6a1.33,1.33,0,0,1-1.41,1.2ZM349.6,38.52c-3.78,0-6.15-3.06-5.41-6.94a6.37,6.37,0,0,1,6.52-5.45c3.77,0,6.14,3,5.4,7A6.55,6.55,0,0,1,349.6,38.52Z"/><path class="cls-16" d="M358,83.54c-4,0-6.44-3.28-5.7-7.46a6.85,6.85,0,0,1,7-5.83c4.07,0,6.51,3.14,5.77,7.47A6.82,6.82,0,0,1,358,83.54Z"/><path class="cls-17" d="M384,83.77c-10,0-16.06-6.72-14.21-17.32l1.63-9.26c1.62-9.41,9-14.26,18.43-14.26a18.45,18.45,0,0,1,11.25,3.58,1.22,1.22,0,0,1,.23,1.79L396.91,54a1.2,1.2,0,0,1-1.78.22,11.27,11.27,0,0,0-5.7-1.57c-3.92,0-6.29,2.09-7,5.75l-1.55,8.81c-.89,4.56,1.11,6.87,4.73,6.87a14.21,14.21,0,0,0,7-2.16,1.13,1.13,0,0,1,1.78.44l2.89,6.43a1.2,1.2,0,0,1-.59,1.79A25.67,25.67,0,0,1,384,83.77Z"/><path class="cls-17" d="M414,83.77c-9.92,0-15.92-7.47-14.21-17l1.55-9.26c1.63-9,8.89-14.63,19.18-14.63S436.59,50.47,435,59.58l-1.7,9.4C431.63,78.39,424.9,83.77,414,83.77ZM415.27,74c3.85,0,6.22-2.09,6.81-5.6l1.71-9.56c.59-3.36-1-6.12-4.52-6.12a6.48,6.48,0,0,0-6.66,5.6l-1.71,9.63C410.24,71.6,411.79,74,415.27,74Z"/></g></g></g></g></svg>